<mxfile host="app.diagrams.net" modified="2021-06-07T16:20:26.651Z" agent="5.0 (Windows NT 10.0; Win64; x64) AppleWebKit/537.36 (KHTML, like Gecko) Chrome/90.0.4430.212 Safari/537.36" etag="LC7xejeHUVLdwPL1ZFjc" version="14.7.6" type="github">
  <diagram name="Page-1" id="74e2e168-ea6b-b213-b513-2b3c1d86103e">
    <mxGraphModel dx="1038" dy="548" grid="1" gridSize="10" guides="1" tooltips="1" connect="1" arrows="1" fold="1" page="1" pageScale="1" pageWidth="1100" pageHeight="850" background="none" math="0" shadow="0">
      <root>
        <mxCell id="0" />
        <mxCell id="1" parent="0" />
        <mxCell id="SvXYa6uXOyz6k_xQUoXo-6" value="front-end" style="swimlane;fillColor=#d5e8d4;strokeColor=#82b366;" vertex="1" parent="1">
          <mxGeometry x="60" y="70" width="460" height="760" as="geometry" />
        </mxCell>
        <mxCell id="SvXYa6uXOyz6k_xQUoXo-58" style="edgeStyle=orthogonalEdgeStyle;rounded=0;orthogonalLoop=1;jettySize=auto;html=1;entryX=0;entryY=0.5;entryDx=0;entryDy=0;" edge="1" parent="SvXYa6uXOyz6k_xQUoXo-6" source="SvXYa6uXOyz6k_xQUoXo-7" target="SvXYa6uXOyz6k_xQUoXo-9">
          <mxGeometry relative="1" as="geometry">
            <Array as="points">
              <mxPoint x="150" y="80" />
              <mxPoint x="150" y="350" />
            </Array>
          </mxGeometry>
        </mxCell>
        <mxCell id="SvXYa6uXOyz6k_xQUoXo-7" value="會員中心" style="rounded=0;whiteSpace=wrap;html=1;" vertex="1" parent="SvXYa6uXOyz6k_xQUoXo-6">
          <mxGeometry x="20" y="50" width="120" height="60" as="geometry" />
        </mxCell>
        <mxCell id="SvXYa6uXOyz6k_xQUoXo-8" value="第三方登入" style="rounded=0;whiteSpace=wrap;html=1;" vertex="1" parent="SvXYa6uXOyz6k_xQUoXo-6">
          <mxGeometry x="180" y="50" width="120" height="60" as="geometry" />
        </mxCell>
        <mxCell id="SvXYa6uXOyz6k_xQUoXo-15" value="" style="endArrow=classic;html=1;exitX=1;exitY=0.5;exitDx=0;exitDy=0;entryX=0;entryY=0.5;entryDx=0;entryDy=0;" edge="1" parent="SvXYa6uXOyz6k_xQUoXo-6" source="SvXYa6uXOyz6k_xQUoXo-7" target="SvXYa6uXOyz6k_xQUoXo-8">
          <mxGeometry width="50" height="50" relative="1" as="geometry">
            <mxPoint x="440" y="230" as="sourcePoint" />
            <mxPoint x="490" y="180" as="targetPoint" />
          </mxGeometry>
        </mxCell>
        <mxCell id="SvXYa6uXOyz6k_xQUoXo-21" value="已連結" style="rhombus;whiteSpace=wrap;html=1;" vertex="1" parent="SvXYa6uXOyz6k_xQUoXo-6">
          <mxGeometry x="350" y="40" width="80" height="80" as="geometry" />
        </mxCell>
        <mxCell id="SvXYa6uXOyz6k_xQUoXo-22" value="" style="endArrow=classic;html=1;exitX=1;exitY=0.5;exitDx=0;exitDy=0;entryX=0;entryY=0.5;entryDx=0;entryDy=0;" edge="1" parent="SvXYa6uXOyz6k_xQUoXo-6" source="SvXYa6uXOyz6k_xQUoXo-8" target="SvXYa6uXOyz6k_xQUoXo-21">
          <mxGeometry width="50" height="50" relative="1" as="geometry">
            <mxPoint x="440" y="230" as="sourcePoint" />
            <mxPoint x="490" y="180" as="targetPoint" />
          </mxGeometry>
        </mxCell>
        <mxCell id="SvXYa6uXOyz6k_xQUoXo-23" value="第三方程式登入連結" style="rounded=0;whiteSpace=wrap;html=1;" vertex="1" parent="SvXYa6uXOyz6k_xQUoXo-6">
          <mxGeometry x="500" y="50" width="120" height="60" as="geometry" />
        </mxCell>
        <mxCell id="SvXYa6uXOyz6k_xQUoXo-24" value="" style="endArrow=classic;html=1;exitX=1;exitY=0.5;exitDx=0;exitDy=0;entryX=0;entryY=0.5;entryDx=0;entryDy=0;" edge="1" parent="SvXYa6uXOyz6k_xQUoXo-6" source="SvXYa6uXOyz6k_xQUoXo-21" target="SvXYa6uXOyz6k_xQUoXo-23">
          <mxGeometry width="50" height="50" relative="1" as="geometry">
            <mxPoint x="440" y="230" as="sourcePoint" />
            <mxPoint x="490" y="180" as="targetPoint" />
          </mxGeometry>
        </mxCell>
        <mxCell id="SvXYa6uXOyz6k_xQUoXo-25" value="否" style="text;strokeColor=none;fillColor=none;align=left;verticalAlign=top;spacingLeft=4;spacingRight=4;overflow=hidden;rotatable=0;points=[[0,0.5],[1,0.5]];portConstraint=eastwest;" vertex="1" parent="SvXYa6uXOyz6k_xQUoXo-6">
          <mxGeometry x="430" y="50" width="60" height="26" as="geometry" />
        </mxCell>
        <mxCell id="SvXYa6uXOyz6k_xQUoXo-26" value="取消連結" style="rounded=0;whiteSpace=wrap;html=1;" vertex="1" parent="SvXYa6uXOyz6k_xQUoXo-6">
          <mxGeometry x="500" y="130" width="120" height="60" as="geometry" />
        </mxCell>
        <mxCell id="SvXYa6uXOyz6k_xQUoXo-29" value="" style="endArrow=classic;html=1;entryX=0;entryY=0.5;entryDx=0;entryDy=0;exitX=0.5;exitY=1;exitDx=0;exitDy=0;" edge="1" parent="SvXYa6uXOyz6k_xQUoXo-6" source="SvXYa6uXOyz6k_xQUoXo-21" target="SvXYa6uXOyz6k_xQUoXo-26">
          <mxGeometry width="50" height="50" relative="1" as="geometry">
            <mxPoint x="440" y="230" as="sourcePoint" />
            <mxPoint x="490" y="180" as="targetPoint" />
            <Array as="points">
              <mxPoint x="390" y="160" />
            </Array>
          </mxGeometry>
        </mxCell>
        <mxCell id="SvXYa6uXOyz6k_xQUoXo-32" value="是" style="text;strokeColor=none;fillColor=none;align=left;verticalAlign=top;spacingLeft=4;spacingRight=4;overflow=hidden;rotatable=0;points=[[0,0.5],[1,0.5]];portConstraint=eastwest;" vertex="1" parent="SvXYa6uXOyz6k_xQUoXo-6">
          <mxGeometry x="390" y="120" width="60" height="26" as="geometry" />
        </mxCell>
        <mxCell id="SvXYa6uXOyz6k_xQUoXo-38" style="edgeStyle=orthogonalEdgeStyle;rounded=0;orthogonalLoop=1;jettySize=auto;html=1;exitX=1;exitY=0.5;exitDx=0;exitDy=0;entryX=0;entryY=0.5;entryDx=0;entryDy=0;" edge="1" parent="SvXYa6uXOyz6k_xQUoXo-6" source="SvXYa6uXOyz6k_xQUoXo-9" target="SvXYa6uXOyz6k_xQUoXo-34">
          <mxGeometry relative="1" as="geometry" />
        </mxCell>
        <mxCell id="SvXYa6uXOyz6k_xQUoXo-9" value="信箱驗證" style="rounded=0;whiteSpace=wrap;html=1;" vertex="1" parent="SvXYa6uXOyz6k_xQUoXo-6">
          <mxGeometry x="180" y="320" width="120" height="60" as="geometry" />
        </mxCell>
        <mxCell id="SvXYa6uXOyz6k_xQUoXo-10" value="基本資料填寫" style="rounded=0;whiteSpace=wrap;html=1;" vertex="1" parent="SvXYa6uXOyz6k_xQUoXo-6">
          <mxGeometry x="180" y="420" width="120" height="60" as="geometry" />
        </mxCell>
        <mxCell id="SvXYa6uXOyz6k_xQUoXo-12" value="個人資訊" style="rounded=0;whiteSpace=wrap;html=1;" vertex="1" parent="SvXYa6uXOyz6k_xQUoXo-6">
          <mxGeometry x="180" y="500" width="120" height="60" as="geometry" />
        </mxCell>
        <mxCell id="SvXYa6uXOyz6k_xQUoXo-13" value="興趣與喜好" style="rounded=0;whiteSpace=wrap;html=1;" vertex="1" parent="SvXYa6uXOyz6k_xQUoXo-6">
          <mxGeometry x="180" y="580" width="120" height="60" as="geometry" />
        </mxCell>
        <mxCell id="SvXYa6uXOyz6k_xQUoXo-50" style="edgeStyle=orthogonalEdgeStyle;rounded=0;orthogonalLoop=1;jettySize=auto;html=1;exitX=1;exitY=0.5;exitDx=0;exitDy=0;entryX=0;entryY=0.5;entryDx=0;entryDy=0;" edge="1" parent="SvXYa6uXOyz6k_xQUoXo-6" source="SvXYa6uXOyz6k_xQUoXo-14" target="SvXYa6uXOyz6k_xQUoXo-49">
          <mxGeometry relative="1" as="geometry" />
        </mxCell>
        <mxCell id="SvXYa6uXOyz6k_xQUoXo-14" value="轉移課程" style="rounded=0;whiteSpace=wrap;html=1;" vertex="1" parent="SvXYa6uXOyz6k_xQUoXo-6">
          <mxGeometry x="180" y="660" width="120" height="60" as="geometry" />
        </mxCell>
        <mxCell id="SvXYa6uXOyz6k_xQUoXo-37" style="edgeStyle=orthogonalEdgeStyle;rounded=0;orthogonalLoop=1;jettySize=auto;html=1;exitX=1;exitY=0.5;exitDx=0;exitDy=0;entryX=0;entryY=0.5;entryDx=0;entryDy=0;" edge="1" parent="SvXYa6uXOyz6k_xQUoXo-6" source="SvXYa6uXOyz6k_xQUoXo-34" target="SvXYa6uXOyz6k_xQUoXo-35">
          <mxGeometry relative="1" as="geometry" />
        </mxCell>
        <mxCell id="SvXYa6uXOyz6k_xQUoXo-34" value="已驗證" style="rhombus;whiteSpace=wrap;html=1;" vertex="1" parent="SvXYa6uXOyz6k_xQUoXo-6">
          <mxGeometry x="350" y="310" width="80" height="80" as="geometry" />
        </mxCell>
        <mxCell id="SvXYa6uXOyz6k_xQUoXo-35" value="驗證信箱" style="rounded=0;whiteSpace=wrap;html=1;" vertex="1" parent="SvXYa6uXOyz6k_xQUoXo-6">
          <mxGeometry x="500" y="340" width="120" height="60" as="geometry" />
        </mxCell>
        <mxCell id="SvXYa6uXOyz6k_xQUoXo-39" value="否" style="text;strokeColor=none;fillColor=none;align=left;verticalAlign=top;spacingLeft=4;spacingRight=4;overflow=hidden;rotatable=0;points=[[0,0.5],[1,0.5]];portConstraint=eastwest;" vertex="1" parent="SvXYa6uXOyz6k_xQUoXo-6">
          <mxGeometry x="430" y="320" width="60" height="26" as="geometry" />
        </mxCell>
        <mxCell id="SvXYa6uXOyz6k_xQUoXo-49" value="填寫轉移申請單" style="rounded=0;whiteSpace=wrap;html=1;" vertex="1" parent="SvXYa6uXOyz6k_xQUoXo-6">
          <mxGeometry x="330" y="660" width="120" height="60" as="geometry" />
        </mxCell>
        <mxCell id="SvXYa6uXOyz6k_xQUoXo-45" value="確認" style="rounded=0;whiteSpace=wrap;html=1;" vertex="1" parent="SvXYa6uXOyz6k_xQUoXo-6">
          <mxGeometry x="330" y="420" width="120" height="60" as="geometry" />
        </mxCell>
        <mxCell id="SvXYa6uXOyz6k_xQUoXo-47" style="edgeStyle=orthogonalEdgeStyle;rounded=0;orthogonalLoop=1;jettySize=auto;html=1;exitX=1;exitY=0.5;exitDx=0;exitDy=0;entryX=0;entryY=0.5;entryDx=0;entryDy=0;" edge="1" parent="SvXYa6uXOyz6k_xQUoXo-6" source="SvXYa6uXOyz6k_xQUoXo-10" target="SvXYa6uXOyz6k_xQUoXo-45">
          <mxGeometry relative="1" as="geometry" />
        </mxCell>
        <mxCell id="SvXYa6uXOyz6k_xQUoXo-55" style="edgeStyle=orthogonalEdgeStyle;rounded=0;orthogonalLoop=1;jettySize=auto;html=1;exitX=0;exitY=0.5;exitDx=0;exitDy=0;entryX=0.5;entryY=1;entryDx=0;entryDy=0;" edge="1" parent="SvXYa6uXOyz6k_xQUoXo-6" source="SvXYa6uXOyz6k_xQUoXo-51" target="SvXYa6uXOyz6k_xQUoXo-7">
          <mxGeometry relative="1" as="geometry" />
        </mxCell>
        <mxCell id="SvXYa6uXOyz6k_xQUoXo-51" value="ICON與連結改變" style="rounded=0;whiteSpace=wrap;html=1;" vertex="1" parent="SvXYa6uXOyz6k_xQUoXo-6">
          <mxGeometry x="300" y="200" width="120" height="60" as="geometry" />
        </mxCell>
        <mxCell id="SvXYa6uXOyz6k_xQUoXo-54" style="edgeStyle=orthogonalEdgeStyle;rounded=0;orthogonalLoop=1;jettySize=auto;html=1;exitX=1;exitY=0.5;exitDx=0;exitDy=0;entryX=1;entryY=0.5;entryDx=0;entryDy=0;" edge="1" parent="1" source="SvXYa6uXOyz6k_xQUoXo-27" target="SvXYa6uXOyz6k_xQUoXo-51">
          <mxGeometry relative="1" as="geometry" />
        </mxCell>
        <mxCell id="SvXYa6uXOyz6k_xQUoXo-27" value="會員資料庫" style="rounded=0;whiteSpace=wrap;html=1;" vertex="1" parent="1">
          <mxGeometry x="800" y="120" width="120" height="60" as="geometry" />
        </mxCell>
        <mxCell id="SvXYa6uXOyz6k_xQUoXo-28" value="" style="endArrow=classic;html=1;entryX=0;entryY=0.5;entryDx=0;entryDy=0;exitX=1;exitY=0.5;exitDx=0;exitDy=0;" edge="1" parent="1" source="SvXYa6uXOyz6k_xQUoXo-23" target="SvXYa6uXOyz6k_xQUoXo-27">
          <mxGeometry width="50" height="50" relative="1" as="geometry">
            <mxPoint x="500" y="300" as="sourcePoint" />
            <mxPoint x="550" y="250" as="targetPoint" />
          </mxGeometry>
        </mxCell>
        <mxCell id="SvXYa6uXOyz6k_xQUoXo-42" value="" style="endArrow=none;html=1;exitX=1;exitY=0.5;exitDx=0;exitDy=0;" edge="1" parent="1" source="SvXYa6uXOyz6k_xQUoXo-35">
          <mxGeometry width="50" height="50" relative="1" as="geometry">
            <mxPoint x="500" y="300" as="sourcePoint" />
            <mxPoint x="760" y="440" as="targetPoint" />
          </mxGeometry>
        </mxCell>
        <mxCell id="SvXYa6uXOyz6k_xQUoXo-43" style="edgeStyle=orthogonalEdgeStyle;rounded=0;orthogonalLoop=1;jettySize=auto;html=1;exitX=1;exitY=0.5;exitDx=0;exitDy=0;" edge="1" parent="1" source="SvXYa6uXOyz6k_xQUoXo-12">
          <mxGeometry relative="1" as="geometry">
            <mxPoint x="760" y="370" as="targetPoint" />
          </mxGeometry>
        </mxCell>
        <mxCell id="SvXYa6uXOyz6k_xQUoXo-53" style="edgeStyle=orthogonalEdgeStyle;rounded=0;orthogonalLoop=1;jettySize=auto;html=1;exitX=1;exitY=0.5;exitDx=0;exitDy=0;" edge="1" parent="1" source="SvXYa6uXOyz6k_xQUoXo-45">
          <mxGeometry relative="1" as="geometry">
            <mxPoint x="760" y="210" as="targetPoint" />
          </mxGeometry>
        </mxCell>
        <mxCell id="SvXYa6uXOyz6k_xQUoXo-48" style="edgeStyle=orthogonalEdgeStyle;rounded=0;orthogonalLoop=1;jettySize=auto;html=1;exitX=1;exitY=0.5;exitDx=0;exitDy=0;" edge="1" parent="1" source="SvXYa6uXOyz6k_xQUoXo-13">
          <mxGeometry relative="1" as="geometry">
            <mxPoint x="760" y="440" as="targetPoint" />
          </mxGeometry>
        </mxCell>
        <mxCell id="SvXYa6uXOyz6k_xQUoXo-52" style="edgeStyle=orthogonalEdgeStyle;rounded=0;orthogonalLoop=1;jettySize=auto;html=1;" edge="1" parent="1" source="SvXYa6uXOyz6k_xQUoXo-26">
          <mxGeometry relative="1" as="geometry">
            <mxPoint x="760" y="150" as="targetPoint" />
          </mxGeometry>
        </mxCell>
        <mxCell id="SvXYa6uXOyz6k_xQUoXo-60" style="edgeStyle=orthogonalEdgeStyle;rounded=0;orthogonalLoop=1;jettySize=auto;html=1;entryX=0;entryY=0.5;entryDx=0;entryDy=0;" edge="1" parent="1">
          <mxGeometry relative="1" as="geometry">
            <mxPoint x="210" y="270" as="sourcePoint" />
            <mxPoint x="240" y="520" as="targetPoint" />
            <Array as="points">
              <mxPoint x="210" y="280" />
              <mxPoint x="210" y="520" />
            </Array>
          </mxGeometry>
        </mxCell>
        <mxCell id="SvXYa6uXOyz6k_xQUoXo-61" style="edgeStyle=orthogonalEdgeStyle;rounded=0;orthogonalLoop=1;jettySize=auto;html=1;entryX=0;entryY=0.5;entryDx=0;entryDy=0;" edge="1" parent="1">
          <mxGeometry relative="1" as="geometry">
            <mxPoint x="210" y="350" as="sourcePoint" />
            <mxPoint x="240" y="600" as="targetPoint" />
            <Array as="points">
              <mxPoint x="210" y="600" />
            </Array>
          </mxGeometry>
        </mxCell>
        <mxCell id="SvXYa6uXOyz6k_xQUoXo-62" style="edgeStyle=orthogonalEdgeStyle;rounded=0;orthogonalLoop=1;jettySize=auto;html=1;entryX=0;entryY=0.5;entryDx=0;entryDy=0;" edge="1" parent="1">
          <mxGeometry relative="1" as="geometry">
            <mxPoint x="210" y="430" as="sourcePoint" />
            <mxPoint x="240" y="680" as="targetPoint" />
            <Array as="points">
              <mxPoint x="210" y="440" />
              <mxPoint x="210" y="680" />
            </Array>
          </mxGeometry>
        </mxCell>
        <mxCell id="SvXYa6uXOyz6k_xQUoXo-63" style="edgeStyle=orthogonalEdgeStyle;rounded=0;orthogonalLoop=1;jettySize=auto;html=1;entryX=0;entryY=0.5;entryDx=0;entryDy=0;" edge="1" parent="1">
          <mxGeometry relative="1" as="geometry">
            <mxPoint x="210" y="510" as="sourcePoint" />
            <mxPoint x="240" y="760" as="targetPoint" />
            <Array as="points">
              <mxPoint x="210" y="520" />
              <mxPoint x="210" y="760" />
            </Array>
          </mxGeometry>
        </mxCell>
        <mxCell id="SvXYa6uXOyz6k_xQUoXo-56" value="送出審核" style="rounded=0;whiteSpace=wrap;html=1;" vertex="1" parent="1">
          <mxGeometry x="540" y="730" width="120" height="60" as="geometry" />
        </mxCell>
        <mxCell id="SvXYa6uXOyz6k_xQUoXo-57" style="edgeStyle=orthogonalEdgeStyle;rounded=0;orthogonalLoop=1;jettySize=auto;html=1;exitX=1;exitY=0.5;exitDx=0;exitDy=0;" edge="1" parent="1" source="SvXYa6uXOyz6k_xQUoXo-49" target="SvXYa6uXOyz6k_xQUoXo-56">
          <mxGeometry relative="1" as="geometry" />
        </mxCell>
        <mxCell id="SvXYa6uXOyz6k_xQUoXo-93" value="back-end" style="swimlane;fillColor=#d5e8d4;strokeColor=#82b366;" vertex="1" parent="1">
          <mxGeometry x="520" y="70" width="200" height="760" as="geometry" />
        </mxCell>
        <mxCell id="SvXYa6uXOyz6k_xQUoXo-94" value="DB" style="swimlane;fillColor=#d5e8d4;strokeColor=#82b366;" vertex="1" parent="1">
          <mxGeometry x="720" y="70" width="260" height="760" as="geometry" />
        </mxCell>
      </root>
    </mxGraphModel>
  </diagram>
</mxfile>
